<?xml version="1.0" standalone="no"?>
<!DOCTYPE svg PUBLIC "-//W3C//DTD SVG 20010904//EN"
 "http://www.w3.org/TR/2001/REC-SVG-20010904/DTD/svg10.dtd">
<svg version="1.0" xmlns="http://www.w3.org/2000/svg"
 width="445.000000pt" height="445.000000pt" viewBox="0 0 445.000000 445.000000"
 preserveAspectRatio="xMidYMid meet">
<metadata>
Created by potrace 1.14, written by Peter Selinger 2001-2017
</metadata>
<g transform="translate(0.000000,445.000000) scale(0.100000,-0.100000)"
fill="#000000" stroke="none">
<path d="M1372 4350 c0 -19 2 -27 5 -17 2 9 2 25 0 35 -3 9 -5 1 -5 -18z"/>
<path d="M2945 4351 c6 -10 2 -12 -16 -6 -13 3 -19 3 -13 -2 12 -9 24 -94 12
-87 -4 3 -5 -11 -4 -31 2 -19 0 -37 -4 -40 -5 -3 -7 23 -5 57 2 46 0 57 -6 39
-12 -31 -19 -23 -21 23 -1 35 -13 59 -16 33 -1 -7 -3 -28 -6 -47 -2 -19 -5
-36 -6 -37 -1 -2 -3 -7 -4 -12 -3 -26 -12 -16 -14 17 -5 86 -6 90 -19 85 -13
-5 -18 -65 -13 -143 2 -19 2 -71 2 -115 -3 -174 -3 -619 -2 -788 1 -98 0 -181
-3 -183 -2 -2 -281 -7 -620 -10 l-617 -5 -1 48 c-1 51 -2 83 -14 313 -3 80 -8
270 -10 422 -2 152 -6 287 -10 299 -5 14 -4 19 4 15 7 -5 9 -1 5 8 -3 9 -11
13 -17 9 -6 -4 -8 0 -4 10 3 8 0 20 -7 26 -11 9 -12 4 -9 -25 2 -23 0 -33 -7
-29 -5 3 -10 19 -10 35 0 16 -4 31 -9 34 -4 3 -7 -5 -6 -18 2 -13 -1 -29 -6
-37 -6 -10 -9 -3 -10 21 -1 19 -1 38 -1 41 1 3 -5 6 -11 6 -7 0 -13 -8 -13
-18 0 -10 5 -15 10 -12 5 4 7 -1 3 -11 -4 -10 -7 -20 -7 -22 0 -3 -4 -2 -10 1
-6 3 -7 -1 -4 -9 3 -9 11 -13 18 -9 7 4 7 1 -1 -9 -7 -8 -9 -19 -5 -23 4 -5 2
-5 -5 -1 -11 6 -19 32 -27 88 -4 28 -15 32 -12 5 2 -14 0 -43 -5 -64 l-8 -38
2 36 c1 20 -5 45 -13 55 -8 10 -10 15 -4 11 6 -3 11 0 11 8 0 8 -5 13 -11 12
-6 -1 -10 6 -10 15 1 10 -2 16 -6 13 -9 -6 -5 -69 6 -86 5 -8 3 -9 -5 -5 -8 5
-11 3 -9 -7 2 -9 -1 -16 -7 -16 -5 -1 -9 24 -8 54 0 30 -4 55 -9 55 -5 0 -7
-4 -4 -9 6 -10 -18 -34 -26 -26 -3 3 -4 -5 -3 -17 1 -13 -1 -32 -6 -43 -7 -18
-8 -18 -9 5 -2 14 -2 32 -1 40 1 12 -1 11 -9 -2 -13 -20 -15 -437 -4 -683 5
-93 8 -237 9 -319 l0 -149 -85 -3 c-47 -2 -213 -6 -370 -9 -247 -5 -339 -9
-373 -14 -5 0 -6 -5 -3 -9 2 -4 -6 -9 -20 -10 -13 -1 -24 3 -24 8 0 6 -4 10
-10 10 -5 0 -6 -8 -3 -17 6 -16 5 -17 -12 -3 -11 9 -16 10 -11 3 4 -8 1 -13
-9 -13 -10 0 -14 5 -10 13 4 6 1 5 -7 -3 -14 -17 -43 -15 -68 3 -12 9 -13 9
-2 -3 17 -20 15 -31 -5 -23 -12 5 -14 3 -9 -8 4 -8 -1 -3 -11 10 -13 15 -27
21 -39 18 -17 -4 -17 -5 3 -6 25 -1 25 -33 0 -37 -10 -1 -15 1 -12 6 3 4 -11
8 -30 8 -19 0 -37 -3 -39 -7 -3 -4 8 -6 25 -5 16 1 29 -3 29 -8 0 -6 -9 -8
-20 -5 -11 3 -20 1 -20 -4 0 -4 -8 -6 -17 -3 -17 5 -17 5 0 -6 25 -16 21 -30
-8 -30 -14 0 -25 -4 -25 -8 0 -4 29 -7 64 -7 36 1 62 -3 60 -7 -3 -5 -11 -5
-17 -2 -7 4 -9 3 -4 -1 9 -10 180 -10 196 -1 7 5 8 1 4 -11 -6 -16 -5 -16 10
-4 9 7 17 9 17 4 0 -11 -4 -11 116 -16 51 -3 96 -7 100 -9 5 -3 47 -6 94 -8
47 -1 105 -3 130 -4 25 -1 50 2 57 7 6 4 14 3 19 -4 5 -8 3 -9 -6 -4 -9 5 -11
4 -6 -4 4 -6 13 -8 19 -4 16 10 64 11 79 2 7 -4 18 0 26 9 7 9 11 11 7 5 -3
-7 -3 -13 2 -14 4 0 55 -3 113 -5 57 -3 105 -6 106 -7 13 -16 27 -488 28 -981
l1 -359 -185 3 c-326 4 -744 1 -775 -6 -16 -4 -45 -7 -63 -8 -19 -1 -30 -6
-28 -12 2 -6 -2 -11 -10 -11 -7 0 -11 4 -8 9 3 4 0 8 -5 8 -6 0 -11 -7 -11
-16 0 -8 -5 -12 -10 -9 -6 4 -18 1 -26 -6 -13 -10 -17 -10 -25 2 -8 12 -10 12
-18 0 -7 -11 -13 -12 -24 -3 -11 9 -14 9 -14 -2 0 -9 9 -13 24 -11 12 1 27 -3
33 -10 8 -10 3 -12 -20 -10 -17 1 -33 -2 -37 -8 -3 -6 -1 -7 5 -3 7 4 12 2 12
-3 0 -6 -5 -11 -11 -11 -6 0 -9 -6 -6 -14 8 -20 -4 -28 -22 -14 -13 10 -14 10
-4 -1 7 -8 36 -15 67 -16 31 -1 59 -5 63 -10 5 -4 1 -6 -7 -3 -8 3 -25 1 -37
-3 -14 -5 -23 -4 -26 4 -3 9 -8 9 -18 0 -11 -11 -10 -13 4 -14 9 -1 25 -2 35
-3 9 -1 22 -5 29 -9 6 -4 14 -1 16 5 3 7 6 8 6 2 1 -5 14 -9 31 -8 17 1 27 -2
24 -8 -3 -5 -12 -7 -20 -4 -7 3 -16 1 -19 -3 -3 -5 -15 -7 -28 -5 -20 4 -20 4
-2 -4 11 -5 32 -7 48 -6 17 2 26 0 22 -6 -3 -6 -1 -10 4 -10 6 0 11 5 11 10 0
6 12 2 27 -7 15 -10 24 -12 20 -5 -5 8 -2 12 8 12 9 0 14 -4 11 -8 -3 -5 1 -9
9 -9 8 0 12 5 8 10 -3 5 4 4 15 -2 25 -13 35 -14 28 -2 -4 5 1 8 10 7 8 -1 19
-8 24 -15 5 -9 9 -10 14 -2 4 6 12 8 19 4 17 -11 57 -10 57 2 0 7 3 7 8 0 4
-6 23 -10 42 -10 19 0 50 -3 68 -6 17 -4 32 -4 32 0 0 3 16 5 35 4 19 -2 51
-4 70 -6 19 -1 35 0 35 4 0 3 10 5 22 3 13 -1 23 -3 23 -4 0 -1 50 -3 110 -4
61 -1 115 -5 122 -9 6 -4 15 -3 18 3 5 8 11 7 21 -1 8 -6 14 -7 14 -2 0 5 9 9
20 9 11 0 20 -4 20 -9 0 -5 7 -4 15 3 8 7 15 8 15 3 0 -5 7 -10 15 -10 8 0 15
5 15 10 0 6 5 6 13 0 6 -6 20 -9 30 -8 10 2 18 -4 19 -13 1 -10 2 -257 2 -550
l1 -534 25 -20 25 -21 -25 7 c-17 5 -21 4 -11 -2 11 -8 11 -10 0 -15 -12 -4
-12 -7 -1 -18 11 -12 13 -12 10 0 -2 7 3 16 11 19 9 3 11 0 6 -8 -5 -8 -4 -11
3 -6 11 6 9 37 -3 56 -4 6 -11 7 -17 4 -7 -4 -8 -2 -4 4 10 17 39 -4 55 -38
11 -25 31 -33 46 -18 3 3 7 29 9 57 4 54 16 84 16 38 0 -14 5 -29 10 -32 8 -5
7 -11 -1 -21 -9 -11 -8 -14 2 -14 12 0 12 -2 1 -9 -11 -7 -10 -9 3 -14 11 -5
14 -3 9 5 -5 8 -1 9 12 4 15 -6 17 -5 7 5 -16 16 -17 33 -1 23 7 -4 8 -3 4 5
-4 6 -9 23 -12 36 -3 19 0 25 13 24 10 0 13 -3 6 -5 -7 -3 -9 -12 -6 -20 5
-13 7 -13 14 -2 9 14 10 13 13 -45 1 -34 20 -31 22 3 0 14 2 38 2 54 2 35 16
25 18 -12 3 -42 3 -44 17 -36 7 5 6 0 -3 -11 -8 -10 -10 -16 -3 -12 7 4 13 0
16 -10 3 -10 6 -2 7 17 4 90 5 140 0 140 -8 0 -6 138 2 145 4 4 3 17 -2 30 -5
13 -6 25 -4 28 10 10 11 57 2 57 -5 0 -6 5 -2 12 10 17 11 58 2 64 -5 3 -5 10
-1 17 9 16 10 267 0 267 -5 0 -5 6 -1 12 5 7 7 90 7 184 l-2 171 30 -3 c18 -2
29 1 29 9 0 8 3 9 8 1 4 -6 30 -11 57 -11 28 0 53 5 57 11 5 8 8 8 8 0 0 -6
35 -10 95 -11 67 0 93 3 88 11 -5 8 -3 8 8 0 16 -12 29 -12 46 -1 6 4 15 3 18
-3 5 -8 11 -8 20 0 10 8 15 8 20 0 5 -8 10 -8 20 0 10 8 15 8 20 0 5 -8 10 -8
20 0 10 8 15 8 20 0 5 -8 10 -8 20 0 9 8 15 8 20 0 3 -5 11 -10 16 -10 6 0 7
5 3 11 -4 8 0 8 15 0 16 -9 21 -9 21 1 0 10 2 10 9 -1 6 -9 10 -10 16 -2 5 9
10 9 20 1 10 -8 15 -8 20 1 6 8 10 7 16 -2 7 -12 9 -12 9 0 0 11 3 11 17 0 13
-11 15 -11 9 -1 -10 16 25 13 36 -3 5 -6 8 -5 8 3 0 18 419 18 421 0 9 -96 22
-489 25 -708 3 -341 3 -322 14 -315 6 4 10 -5 10 -21 0 -48 9 -20 13 39 2 31
6 60 9 63 3 3 4 -17 2 -44 -3 -45 -1 -49 16 -45 16 4 20 0 20 -21 0 -14 5 -26
11 -26 6 0 9 9 6 20 -3 11 0 20 6 20 7 0 5 5 -3 10 -8 5 -10 10 -4 10 7 0 10
13 9 30 -4 42 11 28 18 -17 10 -60 13 -72 20 -79 3 -4 4 5 2 19 -3 14 -1 42 4
64 l9 38 2 -55 c1 -30 2 -62 1 -70 -2 -13 -1 -13 8 0 5 8 7 19 3 25 -3 5 1 5
9 -2 12 -10 15 -8 16 8 1 11 -2 17 -6 15 -4 -3 -8 1 -8 7 0 7 8 14 18 14 12 1
15 -4 12 -18 -3 -11 0 -19 6 -19 8 0 9 -6 2 -18 -6 -12 -5 -23 5 -37 8 -10 14
-14 14 -9 0 6 -5 15 -11 21 -8 8 -6 16 8 30 10 10 20 32 21 48 2 17 6 32 8 34
4 5 8 -57 4 -74 -1 -5 2 -6 7 -2 4 5 9 34 11 65 4 90 3 487 -3 597 -2 55 -7
171 -10 258 l-6 157 48 1 c77 2 87 4 101 12 6 5 12 4 12 0 0 -5 9 -9 19 -9 11
0 17 4 15 8 -3 4 -1 8 5 8 5 0 13 -5 16 -10 4 -6 12 -7 18 -3 17 11 57 11 63
1 3 -5 12 -4 20 3 11 9 18 8 31 -2 10 -8 14 -9 10 -2 -4 6 -3 14 3 18 5 3 10
3 10 -2 0 -6 223 -8 240 -2 3 1 10 3 15 4 6 2 12 4 15 5 15 6 82 4 86 -2 3 -4
11 -8 17 -8 7 0 6 4 -3 11 -12 8 -10 10 10 8 49 -3 81 1 76 9 -3 5 1 9 9 9 8
0 11 -5 8 -11 -3 -6 0 -5 8 2 15 13 43 17 35 4 -3 -5 1 -9 9 -9 8 0 12 4 9 9
-7 11 157 8 172 -4 6 -4 11 -2 11 6 0 8 -8 13 -19 11 -10 -2 -18 0 -18 4 0 10
71 9 88 -2 7 -5 12 -4 12 2 0 6 8 8 18 4 9 -3 14 -3 11 1 -4 4 -16 8 -28 11
-25 5 -71 35 -53 35 6 0 12 9 12 20 0 11 -4 20 -10 20 -5 0 -7 -7 -4 -15 4
-11 0 -13 -18 -9 -12 3 -29 6 -35 6 -7 1 -13 5 -13 10 0 11 7 10 31 -2 11 -6
19 -7 19 -2 0 6 -10 12 -22 16 -34 9 -50 7 -43 -4 3 -5 -7 -3 -22 5 -15 8 -39
15 -53 15 -15 0 -32 6 -39 13 -11 9 -13 9 -7 0 5 -8 1 -13 -9 -13 -9 0 -14 4
-11 9 3 5 -6 12 -21 16 -17 4 -29 2 -34 -7 -7 -10 -9 -10 -9 2 0 11 -11 16
-37 17 -112 4 -426 12 -588 14 l-185 3 -1 46 c-1 53 -4 117 -13 300 -4 74 -9
332 -12 574 -4 435 -4 438 16 433 11 -3 20 0 20 5 0 6 6 5 15 -2 9 -7 15 -8
15 -2 0 11 18 11 38 -1 6 -5 12 -4 12 1 0 13 33 10 42 -3 5 -7 8 -7 8 0 0 6
16 10 35 11 20 0 32 -3 28 -9 -4 -6 -1 -7 8 -1 8 4 30 9 49 9 19 0 41 5 49 9
9 6 12 5 8 0 -3 -6 19 -10 54 -9 32 0 59 4 59 10 0 5 5 4 11 -2 6 -6 25 -7 49
-3 22 4 37 3 34 -1 -3 -5 0 -9 5 -9 6 0 11 5 11 10 0 7 6 7 20 0 15 -8 20 -8
20 1 0 8 4 8 15 -1 8 -7 15 -9 15 -4 0 5 30 9 68 9 37 -1 74 2 83 6 8 4 21 4
29 -1 9 -5 19 -5 27 2 7 6 13 7 13 3 0 -4 8 -1 17 6 11 10 14 10 9 2 -4 -7 -2
-13 3 -13 6 0 11 5 11 11 0 8 6 7 17 -2 11 -10 14 -10 9 -1 -4 6 -3 12 3 12 5
0 13 -5 16 -10 5 -8 11 -8 19 -1 9 7 16 7 25 -2 10 -9 11 -8 5 7 -6 16 -5 17
16 6 12 -7 20 -7 16 -2 -4 7 7 9 29 8 20 -2 38 1 41 5 5 9 -7 12 -69 12 -46
-1 -42 8 7 13 20 1 40 6 45 9 5 3 13 1 16 -5 4 -7 11 -7 18 -2 7 5 22 8 35 7
12 -1 21 3 19 9 -2 5 -17 10 -34 10 -17 1 -34 3 -37 6 -3 4 17 6 45 5 28 0 56
3 62 7 7 5 0 8 -15 8 -17 0 -28 5 -28 14 0 10 7 12 22 8 14 -3 19 -2 14 7 -4
6 -11 9 -16 6 -5 -3 -14 3 -20 12 -10 16 -11 16 -6 1 3 -10 1 -20 -5 -23 -5
-4 -6 -11 -3 -17 5 -7 2 -8 -5 -3 -9 5 -9 11 -3 17 13 13 4 40 -11 31 -6 -3
-7 -1 -3 6 4 6 12 9 17 6 5 -4 9 -1 9 6 0 8 5 7 17 -2 11 -10 14 -10 9 -1 -4
7 -2 12 6 12 10 0 9 3 -1 9 -9 6 -22 6 -33 0 -10 -5 -18 -6 -18 -1 0 5 -10 8
-22 7 -28 -3 -61 13 -53 25 3 5 0 12 -6 16 -8 4 -9 3 -5 -4 8 -13 -35 -17 -48
-5 -11 11 -51 11 -58 -1 -5 -7 -8 -6 -8 4 0 16 -98 17 -728 10 -106 -2 -196 1
-200 5 -4 3 -8 266 -9 583 -3 655 -3 658 -14 641 -4 -7 -6 -21 -4 -31 2 -10
-1 -18 -6 -18 -5 0 -9 6 -8 13 3 27 -2 48 -10 42 -6 -3 -8 -14 -6 -24 2 -10
-1 -24 -6 -32 -7 -11 -9 -10 -10 6 -1 11 -1 23 -1 26 1 3 -5 6 -13 6 -8 0 -12
-4 -9 -9 3 -4 -2 -8 -10 -8 -9 0 -15 3 -13 8 1 4 -2 7 -7 7 -5 0 -11 -29 -13
-64 -4 -78 -13 -94 -13 -25 0 28 -6 56 -12 63 -7 8 -8 11 -2 8 12 -7 12 29 -1
40 -4 5 -5 2 0 -6z m82 -58 c0 -6 -4 -10 -9 -7 -8 5 -13 -19 -8 -41 1 -5 -2
-7 -6 -2 -4 4 -8 20 -9 36 -1 22 3 29 15 28 9 0 17 -7 17 -14z m-1710 -43 c-1
-12 -5 -16 -10 -11 -5 5 -6 14 -3 20 11 16 15 13 13 -9z m190 -90 c-5 -29 -13
-33 -13 -5 0 14 4 25 8 25 4 0 7 -9 5 -20z m-120 -32 c-3 -8 -6 -5 -6 6 -1 11
2 17 5 13 3 -3 4 -12 1 -19z m123 -18 c0 -5 -2 -10 -4 -10 -3 0 -8 5 -11 10
-3 6 -1 10 4 10 6 0 11 -4 11 -10z m2720 -1120 c0 -5 -2 -10 -4 -10 -3 0 -8 5
-11 10 -3 6 -1 10 4 10 6 0 11 -4 11 -10z m-4082 -35 c-3 -3 -9 2 -12 12 -6
14 -5 15 5 6 7 -7 10 -15 7 -18z m1718 -96 c43 -1 85 -6 93 -13 11 -8 13 -8 7
2 -4 7 -2 12 8 12 8 0 18 -5 21 -10 5 -8 11 -7 21 1 11 9 14 9 14 -1 0 -10 3
-10 15 0 12 10 15 10 15 -1 0 -11 2 -11 10 1 9 13 10 13 10 0 0 -13 1 -13 10
0 8 12 10 12 10 1 0 -10 3 -11 13 -2 8 6 17 8 21 4 11 -11 46 -10 46 1 0 7 3
8 8 1 8 -12 27 -13 37 -3 4 4 17 2 28 -3 15 -8 22 -8 28 2 5 8 9 9 9 4 0 -14
38 -17 45 -4 4 5 12 6 18 2 21 -13 49 -14 41 -1 -5 8 -3 8 7 2 20 -13 73 -13
81 0 6 8 8 8 8 0 0 -7 17 -12 44 -11 27 0 43 5 39 10 -4 6 -1 7 8 1 21 -13
119 -14 119 0 0 8 2 8 8 0 4 -7 18 -12 32 -12 14 0 36 0 51 -1 l25 -1 3 -357
c2 -389 5 -510 16 -796 l7 -188 -593 5 c-327 3 -608 5 -624 6 l-30 0 -3 408
c-4 453 -7 602 -17 805 l-7 138 96 -2 c53 -1 99 1 103 4 3 4 9 5 13 2 4 -2 42
-5 86 -6z m2129 -1409 c3 -6 -1 -7 -9 -4 -18 7 -21 14 -7 14 6 0 13 -4 16 -10z
m-3821 -59 c-8 -9 -64 -10 -69 -2 -2 5 13 8 35 7 21 0 36 -3 34 -5z m36 -1 c0
-5 -2 -10 -4 -10 -3 0 -8 5 -11 10 -3 6 -1 10 4 10 6 0 11 -4 11 -10z m93 -77
c-7 -2 -19 -2 -25 0 -7 3 -2 5 12 5 14 0 19 -2 13 -5z m2687 -1003 c0 -5 -5
-10 -11 -10 -5 0 -7 5 -4 10 3 6 8 10 11 10 2 0 4 -4 4 -10z m-43 -72 c-3 -8
-6 -5 -6 6 -1 11 2 17 5 13 3 -3 4 -12 1 -19z m-1447 -18 c0 -5 -5 -10 -11
-10 -5 0 -7 5 -4 10 3 6 8 10 11 10 2 0 4 -4 4 -10z m1610 -10 c0 -5 -5 -10
-11 -10 -5 0 -7 5 -4 10 3 6 8 10 11 10 2 0 4 -4 4 -10z m-1700 -29 c8 -17 7
-20 -9 -18 -14 1 -17 5 -11 13 6 6 7 14 3 17 -3 4 -3 7 0 7 3 0 11 -9 17 -19z
m7 -67 c3 -23 2 -24 -17 -14 -11 6 -20 13 -20 16 0 3 5 2 10 -1 6 -3 10 4 10
16 0 29 13 16 17 -17z"/>
<path d="M1470 4296 c0 -2 8 -10 18 -17 15 -13 16 -12 3 4 -13 16 -21 21 -21
13z"/>
<path d="M4185 3101 c-3 -5 -2 -12 3 -15 5 -3 9 1 9 9 0 17 -3 19 -12 6z"/>
<path d="M4290 2939 c0 -5 5 -7 10 -4 6 3 10 8 10 11 0 2 -4 4 -10 4 -5 0 -10
-5 -10 -11z"/>
<path d="M150 2916 c0 -2 7 -7 16 -10 8 -3 12 -2 9 4 -6 10 -25 14 -25 6z"/>
<path d="M4110 1456 c0 -2 7 -7 16 -10 8 -3 12 -2 9 4 -6 10 -25 14 -25 6z"/>
<path d="M4190 1446 c0 -2 9 -6 20 -9 11 -3 18 -1 14 4 -5 9 -34 13 -34 5z"/>
<path d="M4256 1381 c-4 -5 -2 -12 3 -15 5 -4 12 -2 15 3 4 5 2 12 -3 15 -5 4
-12 2 -15 -3z"/>
<path d="M2924 202 c-6 -4 -10 -15 -8 -25 4 -31 11 -30 16 3 3 16 4 30 4 30
-1 0 -6 -4 -12 -8z"/>
<path d="M3054 135 c0 -28 8 -24 13 5 2 11 -1 20 -5 20 -4 0 -8 -11 -8 -25z"/>
<path d="M3015 130 c3 -5 8 -10 11 -10 2 0 4 5 4 10 0 6 -5 10 -11 10 -5 0 -7
-4 -4 -10z"/>
<path d="M2970 111 c0 -6 4 -13 10 -16 6 -3 7 1 4 9 -7 18 -14 21 -14 7z"/>
<path d="M1455 70 c3 -5 8 -10 11 -10 2 0 4 5 4 10 0 6 -5 10 -11 10 -5 0 -7
-4 -4 -10z"/>
<path d="M3030 69 c0 -5 5 -7 10 -4 6 3 10 8 10 11 0 2 -4 4 -10 4 -5 0 -10
-5 -10 -11z"/>
</g>
</svg>
